<?xml version="1.0" encoding="iso-8859-1"?>
<!-- Generator: Adobe Illustrator 19.0.0, SVG Export Plug-In . SVG Version: 6.00 Build 0)  -->
<svg version="1.1" id="Capa_1" xmlns="http://www.w3.org/2000/svg" xmlns:xlink="http://www.w3.org/1999/xlink" x="0px" y="0px"
	 viewBox="0 0 512 512" style="enable-background:new 0 0 512 512;" xml:space="preserve">
<path style="fill:#7A9E18;" d="M139.304,155.076c-1.136-1.929-3.966-1.584-4.671,0.473c-5.425,15.839-17.678,31.663-34.5,44.559
	c-3.56,2.729-24.687,63.435,0.723,106.105c0.362,0.608,0.957,1.041,1.647,1.197c0.189,0.043,0.382,0.065,0.573,0.065
	c0.505,0,1.003-0.148,1.43-0.432C147.406,278.533,165.587,199.732,139.304,155.076z"/>
<path style="fill:#80AD1F;" d="M139.304,155.076c-1.137-1.931-3.967-1.582-4.671,0.473c-1.897,5.537-4.645,11.07-8.114,16.479
	c10.175,40.648-3.551,92.115-32.111,120.284c1.766,4.981,3.913,9.646,6.447,13.901c0.362,0.608,0.957,1.041,1.647,1.197
	c0.189,0.043,0.382,0.065,0.573,0.065c0.505,0,1.003-0.148,1.43-0.432C147.406,278.533,165.587,199.732,139.304,155.076z"/>
<path style="fill:#82635A;" d="M316.735,409.564c6.126,0,12.163,0.379,18.101,1.081c14.472-56.939,41.617-142.436,82.912-178.991
	c0,0-52.117,14.357-125.808,179.921C300.009,410.253,308.291,409.564,316.735,409.564z"/>
<path style="fill:#60433A;" d="M417.748,231.654c0,0-52.117,14.357-125.808,179.921c7.07-1.158,14.305-1.83,21.667-1.979
	C374.648,245.916,417.748,231.654,417.748,231.654z"/>
<path style="fill:#82635A;" d="M244.086,409.722c-46.907-222.579-107.7-253.539-107.7-253.539
	c40.212,54.686,51.995,162.834,55.09,236.83C210.034,396.081,227.702,401.784,244.086,409.722z"/>
<path style="fill:#60433A;" d="M220.815,400.271c-37.241-214.005-84.429-244.088-84.429-244.088
	c40.212,54.686,51.994,162.834,55.09,236.83C201.54,394.677,211.338,397.121,220.815,400.271z"/>
<path style="fill:#7A9E18;" d="M418.167,228.299c-0.104-0.077-0.749-1.08-2.208-1.046c-20.943,0.912-43.401-10.51-59.388-24.862
	c-0.436-0.391-0.991-0.623-1.575-0.657c-23.443-1.361-45.993,4.632-60.333,16.052c-1.151,0.918-1.309,2.617-0.329,3.729
	c27.392,31.105,91.774,36.531,123.9,10.95c0.554-0.441,0.902-1.089,0.964-1.793C419.3,229.518,418.704,228.88,418.167,228.299z"/>
<g>
	<path style="fill:#80AD1F;" d="M399.158,225.521c-30.923,8.485-67.818,1.559-90.082-16.251c-5.372,2.354-10.248,5.198-14.414,8.516
		c-1.151,0.918-1.309,2.617-0.329,3.729c27.392,31.105,91.775,36.531,123.9,10.95c1.154-0.92,1.306-2.618,0.331-3.727
		C415.727,225.492,414.52,229.117,399.158,225.521z"/>
	<path style="fill:#80AD1F;" d="M439.468,272.561c-0.081-0.448-0.279-0.866-0.574-1.212c-10.802-12.706-17.603-26.896-19.15-39.955
		c-0.26-2.2-2.982-3.057-4.467-1.446c-27.839,30.24-27.186,94.593,1.607,124.165c0.836,0.859,1.984,0.802,1.88,0.781
		c0.708-0.008,1.381-0.306,1.863-0.824C439.151,334.156,444.496,300.257,439.468,272.561z"/>
</g>
<path style="fill:#7A9E18;" d="M423.128,245.055c-4.511-12.235-2.144-14.842-5.153-15.816c-0.961-0.306-2.013-0.033-2.697,0.709
	c-27.839,30.24-27.186,94.592,1.607,124.165c0.836,0.859,1.984,0.802,1.88,0.781c0.708-0.008,1.381-0.306,1.863-0.824
	c2.731-2.935,5.211-6.279,7.45-9.928C410.501,317.463,408.36,275.1,423.128,245.055z"/>
<path style="fill:#80AD1F;" d="M291.521,172.227c-14.565-17.789-40.659-31.105-69.802-35.624c-0.578-0.09-1.169,0.02-1.677,0.31
	c-1.234,0.705-2.479,1.401-3.747,2.076c-25.977,13.831-54.65,18.655-76.7,12.893c-0.743-0.196-1.534-0.046-2.158,0.4
	c-0.518,0.367-0.686,0.487-0.876,0.628c-0.569,0.42-0.94,1.056-1.028,1.757c-0.087,0.702,0.117,1.41,0.565,1.957
	c32.748,39.996,113.331,50.095,154.961,19.319c0.569-0.421,0.94-1.057,1.028-1.758C292.173,173.482,291.969,172.774,291.521,172.227
	z"/>
<path style="fill:#7A9E18;" d="M281.425,162.101c-34.571,15.988-83.622,12.347-117.914-7.934
	c-21.566,0.951-22.71-4.403-26.952-1.258c-0.569,0.42-0.94,1.056-1.028,1.757c-0.087,0.702,0.117,1.41,0.565,1.957
	c32.748,39.996,113.331,50.094,154.961,19.319c1.192-0.882,1.395-2.578,0.463-3.715
	C288.599,168.659,285.206,165.274,281.425,162.101z"/>
<path style="fill:#F4DDB8;" d="M436.561,465.593c-28.141-35.38-72.257-58.096-120.859-58.096c-19.269,0-37.695,3.585-54.671,10.097
	c24.689,15.385,37.415,36.143,53.042,60.665h113.513C444.529,478.26,438.719,468.547,436.561,465.593z"/>
<path style="fill:#F2D59F;" d="M332.116,465.593c11.69-19.67,27.072-35.417,44.665-45.53c-18.806-8.078-39.498-12.565-61.08-12.565
	c-19.269,0-37.695,3.585-54.672,10.097c24.689,15.385,37.415,36.143,53.042,60.665h24.741
	C326.166,478.254,330.504,468.546,332.116,465.593z"/>
<path style="fill:#EDBF77;" d="M317.887,470.103c-17.905-25.243-41.781-46.043-69.048-60.151
	c-84.284-43.609-190.546-20.225-247.555,60.151c-2.422,3.414,0.023,8.157,4.215,8.157h308.174c1.933,0,3.704-1.079,4.591-2.796
	C319.15,473.748,319.005,471.68,317.887,470.103z"/>
<path style="fill:#E0B57C;" d="M91.187,470.103c19.679-38.702,51.991-71.878,94.659-79.968
	c-70.427-9.572-141.771,19.638-184.563,79.968c-2.422,3.414,0.024,8.157,4.215,8.157h88.711
	C91.17,478.26,89.47,473.481,91.187,470.103z"/>
<path style="fill:#8DC133;" d="M139.561,154.595c-0.332-0.625-0.906-1.085-1.588-1.275C88.172,139.457,16.48,177.525,0.132,226.71
	c-0.465,1.399,0.335,2.907,1.759,3.303c6.846,1.906,14.286,2.838,22.085,2.838c48.512,0,102.128-35.227,115.756-76.228
	C139.955,155.952,139.893,155.22,139.561,154.595z"/>
<g>
	<path style="fill:#80AD1F;" d="M139.561,154.595c-0.332-0.625-0.906-1.085-1.588-1.275c-4.436-1.235-9.124-2.059-13.996-2.488
		c-22.956,36.427-73.521,62.064-115.43,58.375c-3.604,5.718-6.451,11.593-8.415,17.503c-0.464,1.396,0.332,2.906,1.759,3.303
		c6.845,1.906,14.286,2.838,22.085,2.838c18.904,0,39.886-5.484,59.425-15.887c27.598-14.694,48.656-37.252,56.331-60.341
		C139.955,155.952,139.893,155.22,139.561,154.595z"/>
	<path style="fill:#80AD1F;" d="M273.294,79.907c-33.549-9.335-75.287,4.962-103.436,27.407c-0.384,0.307-0.674,0.718-0.833,1.183
		c-6.573,19.178-17.947,35.142-31.207,43.797c-0.858,0.56-1.304,1.575-1.137,2.585c0.167,1.01,0.915,1.828,1.908,2.082
		c25.589,6.559,56.102-0.615,80.134-13.409c27.598-14.694,48.656-37.252,56.331-60.341
		C275.517,81.815,274.721,80.305,273.294,79.907z"/>
</g>
<path style="fill:#8DC133;" d="M273.294,79.907c-5.641-1.569-11.692-2.472-18.009-2.743
	c-18.283,34.319-62.662,61.791-104.949,64.173c-10.081,11.285-14.207,10.195-13.655,13.542c0.167,1.01,0.915,1.828,1.908,2.082
	c25.589,6.559,56.103-0.615,80.134-13.409c27.598-14.694,48.656-37.252,56.331-60.341C275.517,81.815,274.721,80.305,273.294,79.907
	z"/>
<path style="fill:#9AD14B;" d="M171.444,35.076c-0.342-0.619-0.924-1.071-1.608-1.25c-0.684-0.181-1.412-0.07-2.014,0.304
	c-35.65,22.089-52.219,85.588-31.93,122.269c0.342,0.619,0.923,1.071,1.608,1.25c0.215,0.057,0.434,0.084,0.653,0.084
	c0.476,0,0.948-0.132,1.361-0.388C175.227,135.218,191.702,71.7,171.444,35.076z"/>
<path style="fill:#8DC133;" d="M171.444,35.076c-0.342-0.619-0.923-1.071-1.608-1.249c-0.684-0.181-1.412-0.07-2.014,0.304
	c-4.328,2.681-8.457,6.064-12.316,10.02c9.32,32.234-1.543,74.787-25.052,98.892c1.389,4.802,3.193,9.298,5.438,13.357
	c0.342,0.619,0.923,1.071,1.608,1.249c0.215,0.057,0.434,0.084,0.653,0.084c0.476,0,0.948-0.132,1.361-0.388
	C175.227,135.218,191.702,71.7,171.444,35.076z"/>
<path style="fill:#AFDD5F;" d="M42.456,71.573c-1.475,0.072-2.591,1.364-2.445,2.834c3.993,40.607,51.313,82.639,92.863,82.639
	c0.94,0,1.874-0.022,2.799-0.068c0.707-0.034,1.368-0.357,1.83-0.892c0.462-0.536,0.685-1.237,0.615-1.942
	C134.015,112.426,84.331,69.528,42.456,71.573z"/>
<g>
	<path style="fill:#9AD14B;" d="M58.114,72.801c-5.363-1.044-10.625-1.473-15.658-1.227c-1.474,0.072-2.591,1.364-2.445,2.834
		c3.993,40.607,51.313,82.639,92.862,82.639c0.94,0,1.874-0.022,2.799-0.068c0.706-0.034,1.368-0.357,1.83-0.892
		c0.462-0.536,0.685-1.237,0.615-1.942c-0.414-4.207-1.321-8.504-2.674-12.822C101.588,134.726,68.156,104.874,58.114,72.801z"/>
	<path style="fill:#9AD14B;" d="M511.984,308.901c-4.473-40.984-53.769-82.701-95.019-80.265c-0.707,0.042-1.365,0.372-1.821,0.912
		c-0.457,0.54-0.672,1.244-0.595,1.948c4.495,41.183,53.986,82.682,95.019,80.265C511.04,311.673,512.146,310.372,511.984,308.901z"
		/>
</g>
<g>
	<path style="fill:#8DC133;" d="M509.212,296.291c-34.332-3.963-70.691-33.945-81.554-67.315c-3.649-0.422-7.228-0.544-10.693-0.34
		c-0.707,0.042-1.365,0.372-1.821,0.912c-0.457,0.54-0.672,1.244-0.595,1.948c4.494,41.176,53.975,82.682,95.019,80.265
		c1.471-0.088,2.576-1.389,2.416-2.86C511.533,304.759,510.593,300.532,509.212,296.291z"/>
	<path style="fill:#8DC133;" d="M417.671,228.027c-8.737-8.827-14.824-22.964-16.7-38.787c-0.057-0.489-0.254-0.951-0.565-1.331
		c-18.221-22.284-48.376-40.269-75.939-38.658c-0.707,0.042-1.365,0.372-1.821,0.912c-0.457,0.541-0.672,1.244-0.595,1.948
		c4.321,39.576,50.733,80.358,91.656,80.358c2.015,0,3.794,0.192,4.531-1.676C418.613,229.841,418.391,228.755,417.671,228.027z"/>
</g>
<path style="fill:#80AD1F;" d="M409.604,217.055c-32.179-9.252-61.281-37.597-69.827-66.772c-5.251-0.957-10.395-1.318-15.311-1.031
	c-0.706,0.042-1.365,0.372-1.821,0.912c-0.457,0.541-0.672,1.244-0.595,1.948c4.321,39.576,50.733,80.358,91.656,80.358
	c2.014,0,3.794,0.192,4.531-1.676C419.424,227.786,415.708,228.042,409.604,217.055z"/>
<path style="fill:#9AD14B;" d="M414.139,131.556c-0.51-0.492-1.199-0.739-1.905-0.722c-0.706,0.031-1.37,0.35-1.835,0.883
	c-22.055,25.281-19.707,77.512,4.361,100.702c1.061,1.022,2.768,0.952,3.74-0.162C440.555,206.978,438.207,154.746,414.139,131.556z
	"/>
<path style="fill:#8DC133;" d="M422.593,142.328c-2.476-4.088-5.302-7.734-8.455-10.772c-0.51-0.492-1.2-0.739-1.905-0.722
	c-0.707,0.031-1.37,0.35-1.835,0.883c-22.017,25.236-19.745,77.475,4.361,100.702c1.061,1.022,2.768,0.953,3.74-0.161
	c2.688-3.081,5.051-6.66,7.074-10.61C411.882,199.035,410.762,165.434,422.593,142.328z"/>
<path style="fill:#9AD14B;" d="M504.695,181.308c-15.207-4.058-34.847-0.712-52.536,8.951
	c-17.691,9.663-31.121,24.379-35.925,39.365c-0.216,0.674-0.146,1.407,0.193,2.028s0.918,1.076,1.601,1.258
	c32.165,8.584,78.191-16.278,88.462-48.317C506.941,183.187,506.121,181.687,504.695,181.308z"/>
<path style="fill:#AFDD5F;" d="M504.695,181.308c-2.964-0.791-6.1-1.292-9.354-1.528c-6.486,11.663-17.836,22.537-31.896,30.217
	c-13.008,7.105-28.511,11.535-43.177,10.47c-1.677,3.014-3.047,6.079-4.034,9.157c-0.216,0.674-0.146,1.407,0.193,2.028
	s0.918,1.076,1.601,1.258c32.164,8.584,78.191-16.278,88.462-48.317C506.941,183.187,506.121,181.687,504.695,181.308z"/>
<g>
</g>
<g>
</g>
<g>
</g>
<g>
</g>
<g>
</g>
<g>
</g>
<g>
</g>
<g>
</g>
<g>
</g>
<g>
</g>
<g>
</g>
<g>
</g>
<g>
</g>
<g>
</g>
<g>
</g>
</svg>
